<?xml version="1.0" encoding="UTF-8" standalone="no"?>
<!-- Generator: Adobe Illustrator 19.2.1, SVG Export Plug-In . SVG Version: 6.00 Build 0)  -->

<svg
   version="1.1"
   id="layer"
   x="0px"
   y="0px"
   viewBox="0 0 132.1617 136.88493"
   xml:space="preserve"
   sodipodi:docname="org-hsr.svg"
   width="132.1617"
   height="136.88493"
   inkscape:version="1.1 (c4e8f9ed74, 2021-05-24)"
   xmlns:inkscape="http://www.inkscape.org/namespaces/inkscape"
   xmlns:sodipodi="http://sodipodi.sourceforge.net/DTD/sodipodi-0.dtd"
   xmlns="http://www.w3.org/2000/svg"
   xmlns:svg="http://www.w3.org/2000/svg"><defs
   id="defs137"><clipPath
     clipPathUnits="userSpaceOnUse"
     id="clipPath1673"><rect
       style="fill:#666666;fill-opacity:0.241737;fill-rule:evenodd;stroke-width:0.633582"
       id="rect1675"
       width="132.1617"
       height="137.30995"
       x="20.9"
       y="221.09004" /></clipPath></defs><sodipodi:namedview
   id="namedview135"
   pagecolor="#ffffff"
   bordercolor="#666666"
   borderopacity="1.0"
   inkscape:pageshadow="2"
   inkscape:pageopacity="0.0"
   inkscape:pagecheckerboard="0"
   showgrid="false"
   fit-margin-top="0"
   fit-margin-left="0"
   fit-margin-right="0"
   fit-margin-bottom="0"
   inkscape:zoom="2.5349351"
   inkscape:cx="222.88539"
   inkscape:cy="41.026692"
   inkscape:window-width="1886"
   inkscape:window-height="2067"
   inkscape:window-x="1930"
   inkscape:window-y="20"
   inkscape:window-maximized="1"
   inkscape:current-layer="layer" />
<style
   type="text/css"
   id="style2">
	.st0{fill:#0065A3;}
	.st1{fill:#C6C7C8;}
	.st2{fill:#1A171B;}
</style>
<g
   id="g132"
   clip-path="url(#clipPath1673)"
   transform="translate(-20.9,-221.51507)">
	<rect
   x="20.9"
   y="226.10001"
   class="st0"
   width="47.099998"
   height="47.099998"
   id="rect4" />
	<rect
   x="20.9"
   y="311.29999"
   class="st0"
   width="47.099998"
   height="47.099998"
   id="rect6" />
	<rect
   x="102.2"
   y="311.29999"
   class="st0"
   width="47.099998"
   height="47.099998"
   id="rect8" />
	
		<rect
   x="101.7"
   y="225.60001"
   transform="matrix(0.9812,-0.1932,0.1932,0.9812,-45.7731,28.9045)"
   class="st1"
   width="47.099998"
   height="47.099998"
   id="rect10" />
	<polygon
   class="st2"
   points="206.3,405.5 199.1,405.5 199.1,410.9 206,410.9 206,413.2 199.1,413.2 199.1,421.6 196.5,421.6 196.5,403.1 206.3,403.1 "
   id="polygon12" />
	<polygon
   class="st2"
   points="213.7,410.9 222.5,410.9 222.5,403.1 225.2,403.1 225.2,421.6 222.5,421.6 222.5,413.2 213.7,413.2 213.7,421.6 211,421.6 211,403.1 213.7,403.1 "
   id="polygon14" />
	<path
   class="st2"
   d="m 239,419.6 c 4.3,0 6.1,-3.5 6.1,-7.2 0,-3.8 -2,-7.2 -6.1,-7.2 -4.1,0 -6.1,3.5 -6.1,7.2 0,3.7 1.9,7.2 6.1,7.2 m 0,-16.8 c 5.6,0 8.9,4.1 8.9,9.5 0,5.6 -3.3,9.6 -8.9,9.6 -5.6,0 -8.9,-3.9 -8.9,-9.6 0,-5.4 3.3,-9.5 8.9,-9.5"
   id="path16" />
	<polygon
   class="st2"
   points="270.8,405.5 263.6,405.5 263.6,410.9 270.5,410.9 270.5,413.2 263.6,413.2 263.6,421.6 261,421.6 261,403.1 270.8,403.1 "
   id="polygon18" />
	<path
   class="st2"
   d="m 283.2,415.2 c -0.5,0 -1.1,-0.1 -1.6,-0.1 -1.4,0 -4.7,0.2 -4.7,2.6 0,1.4 1.4,2.2 2.5,2.2 2.5,0 3.8,-1.5 3.8,-3.5 0,0 0,-1.2 0,-1.2 z m -7.4,-6.1 c 1.2,-0.7 2.7,-1.3 4.4,-1.3 3.9,0 5.4,1.9 5.4,5.6 v 5.6 c 0,1.5 0.1,2.2 0.1,2.6 h -2.3 v -1.7 h -0.1 c -0.6,0.8 -1.9,2.1 -4.2,2.1 -2.9,0 -4.9,-1.3 -4.9,-4.2 0,-3.4 3.7,-4.4 6.3,-4.4 1,0 1.7,0 2.6,0.1 0,-2.3 -0.8,-3.5 -3.3,-3.5 -1.4,0 -2.9,0.5 -3.9,1.4 z"
   id="path20" />
	<path
   class="st2"
   d="m 299.5,410.4 c -0.9,-0.4 -1.9,-0.6 -2.7,-0.6 -2.8,0 -4.3,2.5 -4.3,5 0,2.4 1.3,5.1 4.5,5.1 0.8,0 1.9,-0.3 2.7,-0.8 l 0.2,2.2 c -1,0.5 -2.2,0.6 -3.1,0.6 -4.1,0 -6.9,-3.2 -6.9,-7.1 0,-4.1 2.7,-7.1 6.9,-7.1 1,0 2.3,0.2 3,0.5 z"
   id="path22" />
	<path
   class="st2"
   d="m 303.8,401.8 h 2.5 v 8.3 h 0.1 c 0.9,-1.4 2.5,-2.2 4.3,-2.2 3.5,0 5.1,2.2 5.1,5.8 v 8 h -2.5 v -7 c 0,-3.2 -0.7,-4.7 -2.9,-4.8 -2.8,0 -4.1,2.3 -4.1,5.6 v 6.2 h -2.5 z"
   id="path24" />
	<path
   class="st2"
   d="m 321,401.8 h 2.5 v 8.3 0 c 0.9,-1.4 2.5,-2.2 4.3,-2.2 3.5,0 5.1,2.2 5.1,5.8 v 8 h -2.5 v -7 c 0,-3.2 -0.7,-4.7 -2.9,-4.8 -2.8,0 -4.1,2.3 -4.1,5.6 v 6.2 H 321 Z"
   id="path26" />
	<path
   class="st2"
   d="m 344.2,419.9 c 2.9,0 4.2,-2.6 4.2,-5.1 0,-2.6 -1.6,-5 -4.2,-5 -2.7,0 -4.2,2.5 -4.2,5 -0.1,2.5 1.3,5.1 4.2,5.1 m 0,-12.1 c 4.1,0 6.9,3 6.9,7.1 0,3.9 -2.8,7.1 -6.9,7.1 -4.1,0 -6.9,-3.2 -6.9,-7.1 0,-4.1 2.8,-7.1 6.9,-7.1"
   id="path28" />
	<path
   class="st2"
   d="m 364,410.4 c -1,-0.4 -1.9,-0.6 -2.7,-0.6 -2.8,0 -4.3,2.5 -4.3,5 0,2.4 1.3,5.1 4.5,5.1 0.9,0 1.9,-0.3 2.7,-0.8 l 0.2,2.2 c -1,0.5 -2.2,0.6 -3.1,0.6 -4.1,0 -6.9,-3.2 -6.9,-7.1 0,-4.1 2.7,-7.1 6.9,-7.1 1,0 2.3,0.2 3,0.5 z"
   id="path30" />
	<path
   class="st2"
   d="m 368.2,401.8 h 2.5 v 8.3 h 0.1 c 0.9,-1.4 2.5,-2.2 4.3,-2.2 3.5,0 5.1,2.2 5.1,5.8 v 8 h -2.5 v -7 c 0,-3.2 -0.7,-4.7 -2.8,-4.8 -2.8,0 -4.1,2.3 -4.1,5.6 v 6.2 h -2.5 v -19.9 z"
   id="path32" />
	<path
   class="st2"
   d="m 384.5,419 c 1,0.6 2.4,1 3.1,1 1.1,0 2.5,-0.5 2.5,-1.9 0,-2.5 -5.8,-2.2 -5.8,-6 0,-2.8 2.1,-4.2 4.8,-4.2 1.2,0 2.1,0.2 3.1,0.5 l -0.2,2.2 c -0.6,-0.3 -2,-0.7 -2.6,-0.7 -1.3,0 -2.4,0.5 -2.4,1.6 0,2.8 5.8,2 5.8,6.3 0,2.9 -2.3,4.2 -4.7,4.2 -1.3,0 -2.6,-0.1 -3.7,-0.7 z"
   id="path34" />
	<path
   class="st2"
   d="m 405.4,410.4 c -1,-0.4 -1.9,-0.6 -2.7,-0.6 -2.8,0 -4.3,2.5 -4.3,5 0,2.4 1.3,5.1 4.5,5.1 0.8,0 1.9,-0.3 2.7,-0.8 l 0.2,2.2 c -1,0.5 -2.2,0.6 -3.1,0.6 -4.1,0 -6.9,-3.2 -6.9,-7.1 0,-4.1 2.8,-7.1 6.9,-7.1 1,0 2.3,0.2 3,0.5 z"
   id="path36" />
	<path
   class="st2"
   d="m 409.6,401.8 h 2.5 v 8.3 h 0.1 c 0.9,-1.4 2.5,-2.2 4.3,-2.2 3.5,0 5.1,2.2 5.1,5.8 v 8 h -2.5 v -7 c 0,-3.2 -0.7,-4.7 -2.9,-4.8 -2.8,0 -4.1,2.3 -4.1,5.6 v 6.2 h -2.5 z"
   id="path38" />
	<path
   class="st2"
   d="m 438.8,421.6 h -2.4 v -2.1 0 c -0.8,1.5 -2.6,2.5 -4.4,2.5 -3.5,0 -5,-2.2 -5,-5.8 v -8 h 2.5 v 7 c 0,3.1 0.7,4.7 2.9,4.8 2.8,0 4.1,-2.3 4.1,-5.6 v -6.2 h 2.5 z"
   id="path40" />
	<rect
   x="444.39999"
   y="401.79999"
   class="st2"
   width="2.5"
   height="19.799999"
   id="rect42" />
	<path
   class="st2"
   d="m 461.2,413.6 c 0,-2.1 -1.2,-3.8 -3.4,-3.8 -2.4,0 -3.4,2 -3.6,3.8 z m 1.6,7.5 c -1,0.3 -2,0.9 -4.3,0.9 -4.8,0 -7,-2.9 -7,-7.3 0,-4 2.5,-6.8 6.3,-6.8 4.5,0 5.9,3.3 5.9,7.6 h -9.6 c 0,2.7 2.1,4.5 4.4,4.5 1.6,0 3.5,-0.8 4.1,-1.4 z"
   id="path44" />
	<path
   class="st2"
   d="m 484.8,419.6 c 4.3,0 6.1,-3.5 6.1,-7.2 0,-3.8 -2,-7.2 -6.1,-7.2 -4.1,0 -6.1,3.5 -6.1,7.2 0.1,3.7 1.9,7.2 6.1,7.2 m 0,-16.8 c 5.6,0 8.9,4.1 8.9,9.5 0,5.6 -3.3,9.6 -8.9,9.6 -5.6,0 -8.9,-3.9 -8.9,-9.6 0.1,-5.4 3.3,-9.5 8.9,-9.5"
   id="path46" />
	<path
   class="st2"
   d="m 497.3,419 c 1,0.6 2.4,1 3.1,1 1.1,0 2.5,-0.5 2.5,-1.9 0,-2.5 -5.9,-2.2 -5.9,-6 0,-2.8 2.1,-4.2 4.8,-4.2 1.2,0 2.1,0.2 3.1,0.5 l -0.2,2.2 c -0.6,-0.3 -2,-0.7 -2.6,-0.7 -1.3,0 -2.4,0.5 -2.4,1.6 0,2.8 5.8,2 5.8,6.3 0,2.9 -2.3,4.2 -4.7,4.2 -1.3,0 -2.6,-0.1 -3.7,-0.7 z"
   id="path48" />
	<path
   class="st2"
   d="m 516.8,410.1 h -3.6 v 7.4 c 0,1.6 1,2.4 2.1,2.4 0.8,0 1.3,-0.2 1.7,-0.5 v 2.1 c -0.6,0.2 -1.3,0.4 -2.1,0.4 -2.6,0 -4.2,-1.2 -4.2,-3.9 v -7.9 h -3 v -2 h 3 V 405 l 2.5,-0.8 v 3.9 h 3.6 z"
   id="path50" />
	<path
   class="st2"
   d="m 520,419 c 1,0.6 2.4,1 3.1,1 1.1,0 2.5,-0.5 2.5,-1.9 0,-2.5 -5.8,-2.2 -5.8,-6 0,-2.8 2.1,-4.2 4.8,-4.2 1.2,0 2.1,0.2 3.1,0.5 l -0.2,2.2 c -0.6,-0.3 -2,-0.7 -2.6,-0.7 -1.3,0 -2.4,0.5 -2.4,1.6 0,2.8 5.8,2 5.8,6.3 0,2.9 -2.3,4.2 -4.7,4.2 -1.3,0 -2.6,-0.1 -3.7,-0.7 z"
   id="path52" />
	<path
   class="st2"
   d="m 540.9,410.4 c -1,-0.4 -1.9,-0.6 -2.7,-0.6 -2.8,0 -4.3,2.5 -4.3,5 0,2.4 1.3,5.1 4.5,5.1 0.8,0 1.9,-0.3 2.7,-0.8 l 0.2,2.2 c -1,0.5 -2.2,0.6 -3.1,0.6 -4.1,0 -6.9,-3.2 -6.9,-7.1 0,-4.1 2.8,-7.1 6.9,-7.1 1,0 2.3,0.2 3,0.5 z"
   id="path54" />
	<path
   class="st2"
   d="m 545.2,401.8 h 2.5 v 8.3 h 0.1 c 0.9,-1.4 2.5,-2.2 4.3,-2.2 3.5,0 5.1,2.2 5.1,5.8 v 8 h -2.5 v -7 c 0,-3.2 -0.7,-4.7 -2.9,-4.8 -2.8,0 -4.1,2.3 -4.1,5.6 v 6.2 h -2.5 z"
   id="path56" />
	<polygon
   class="st2"
   points="571.3,410.3 571.2,410.3 567.8,421.6 564.9,421.6 560.6,408.1 563.3,408.1 566.4,419.3 566.5,419.3 569.9,408.1 572.8,408.1 576.2,419.3 576.3,419.3 579.6,408.1 582,408.1 577.7,421.6 574.8,421.6 "
   id="polygon58" />
	<path
   class="st2"
   d="m 594.2,413.6 c 0,-2.1 -1.2,-3.8 -3.4,-3.8 -2.4,0 -3.4,2 -3.6,3.8 z m 1.6,7.5 c -1,0.3 -2,0.9 -4.3,0.9 -4.8,0 -7,-2.9 -7,-7.3 0,-4 2.5,-6.8 6.3,-6.8 4.5,0 5.9,3.3 5.9,7.6 h -9.6 c 0,2.7 2.1,4.5 4.4,4.5 1.6,0 3.5,-0.8 4.2,-1.4 v 2.5 z"
   id="path60" />
	<path
   class="st2"
   d="m 601.6,421.6 h 2.5 v -13.5 h -2.5 z m -0.2,-16.5 h 2.8 v -2.8 h -2.8 z"
   id="path62" />
	<polygon
   class="st2"
   points="609.1,410.1 609.1,408.1 619.4,408.1 619.4,410.3 611.6,419.6 619.6,419.6 619.6,421.6 608.7,421.6 608.7,419.4 616.5,410.1 "
   id="polygon64" />
	<polygon
   class="st2"
   points="206.1,245.2 225.1,245.2 225.1,226.1 234.6,226.1 234.6,273.3 225.1,273.3 225.1,252.6 206.1,252.6 206.1,273.3 196.7,273.3 196.7,226.1 206.1,226.1 "
   id="polygon66" />
	<path
   class="st2"
   d="m 279,234.7 c -3,-1.3 -6.3,-2 -9.6,-2 -3.2,0 -7.4,1.4 -7.4,6.5 0,8.2 20.7,4.7 20.7,20.6 0,10.4 -8.2,14.3 -17.7,14.3 -5.1,0 -7.4,-0.7 -12.1,-1.8 l 0.9,-8.5 c 3.2,1.8 7,2.9 10.7,2.9 3.6,0 8.4,-1.8 8.4,-6.1 0,-9 -20.7,-5.3 -20.7,-20.9 0,-10.6 8.2,-14.4 16.5,-14.4 4.1,0 7.8,0.6 11.3,1.7 z"
   id="path68" />
	<path
   class="st2"
   d="m 298.5,226.1 h 10.2 c 10.2,0 22.3,-0.3 22.3,12.8 0,5.6 -3.7,10.2 -9.7,11 v 0.1 c 2.6,0.2 4.1,2.8 5,4.9 l 7.6,18.5 h -10.6 l -5.7,-14.8 c -1.4,-3.5 -2.6,-4.9 -6.6,-4.9 h -3 v 19.6 h -9.5 z m 9.5,20.1 h 3.1 c 4.7,0 10,-0.7 10,-6.6 0,-5.7 -5.3,-6.2 -10,-6.2 H 308 Z"
   id="path70" />
	<polygon
   class="st2"
   points="199.4,304.4 208.9,304.4 208.9,296 211.7,296 211.7,315.9 208.9,315.9 208.9,306.8 199.4,306.8 199.4,315.9 196.6,315.9 196.6,296 199.4,296 "
   id="polygon72" />
	<path
   class="st2"
   d="m 228.3,295.7 c 6,0 9.6,4.4 9.6,10.3 0,6 -3.5,10.3 -9.6,10.3 -6.1,0 -9.6,-4.2 -9.6,-10.3 0,-5.9 3.6,-10.3 9.6,-10.3 m 0,18 c 4.6,0 6.5,-3.8 6.5,-7.8 0,-4 -2.2,-7.8 -6.5,-7.8 -4.4,0 -6.5,3.7 -6.5,7.8 0,4 1.9,7.8 6.5,7.8"
   id="path74" />
	<path
   class="st2"
   d="m 258.4,299.3 c -1.3,-0.7 -2.6,-1.1 -4.1,-1.1 -4.6,0 -7.6,3.3 -7.6,7.8 0,4.7 3.3,7.8 7.5,7.8 1.4,0 3.3,-0.4 4.3,-1 l 0.2,2.7 c -1.5,0.6 -3.3,0.7 -4.5,0.7 -6.3,0 -10.5,-4 -10.5,-10.4 0,-6.1 4.4,-10.2 10.5,-10.2 1.5,0 3,0.2 4.5,0.9 z"
   id="path76" />
	<polygon
   class="st2"
   points="267.9,304.4 277.4,304.4 277.4,296 280.2,296 280.2,315.9 277.4,315.9 277.4,306.8 267.9,306.8 267.9,315.9 265,315.9 265,296 267.9,296 "
   id="polygon78" />
	<path
   class="st2"
   d="m 297.3,299 c -1.4,-0.6 -2.2,-0.8 -3.7,-0.8 -1.6,0 -3.5,0.6 -3.5,2.6 0,3.8 8.5,2.9 8.5,9.5 0,4.2 -3.3,5.9 -7.2,5.9 -1.4,0 -2.8,-0.4 -4.1,-0.8 l 0.3,-2.6 c 1,0.4 2.7,1 4.1,1 1.6,0 3.9,-0.9 3.9,-3.2 0,-4.5 -8.5,-3.2 -8.5,-9.4 0,-3.5 2.8,-5.4 6.4,-5.4 1.3,0 2.9,0.2 4.2,0.7 z"
   id="path80" />
	<path
   class="st2"
   d="m 319,299.3 c -1.3,-0.7 -2.6,-1.1 -4.1,-1.1 -4.6,0 -7.6,3.3 -7.6,7.8 0,4.7 3.4,7.8 7.5,7.8 1.4,0 3.3,-0.4 4.3,-1 l 0.2,2.7 c -1.5,0.6 -3.4,0.7 -4.5,0.7 -6.3,0 -10.5,-4 -10.5,-10.4 0,-6.1 4.4,-10.2 10.5,-10.2 1.5,0 3,0.2 4.5,0.9 z"
   id="path82" />
	<polygon
   class="st2"
   points="328.5,304.4 338,304.4 338,296 340.8,296 340.8,315.9 338,315.9 338,306.8 328.5,306.8 328.5,315.9 325.6,315.9 325.6,296 328.5,296 "
   id="polygon84" />
	<path
   class="st2"
   d="m 364.3,307.7 c 0,5.6 -2.8,8.6 -7.7,8.6 -4.9,0 -7.7,-3 -7.7,-8.6 V 296 h 2.8 v 11.3 c 0,3.8 1.2,6.4 4.9,6.4 3.7,0 4.9,-2.6 4.9,-6.4 V 296 h 2.8 z"
   id="path86" />
	<polygon
   class="st2"
   points="375,313.4 383.3,313.4 383.3,315.9 372.2,315.9 372.2,296 375,296 "
   id="polygon88" />
	<polygon
   class="st2"
   points="400.5,298.5 392.2,298.5 392.2,304.4 399.8,304.4 399.8,306.8 392.2,306.8 392.2,313.4 400.5,313.4 400.5,315.9 389.4,315.9 389.4,296 400.5,296 "
   id="polygon90" />
	<polygon
   class="st2"
   points="429,298.5 421.3,298.5 421.3,304.4 428.7,304.4 428.7,306.8 421.3,306.8 421.3,315.9 418.5,315.9 418.5,296 429,296 "
   id="polygon92" />
	<path
   class="st2"
   d="m 451.1,307.7 c 0,5.6 -2.8,8.6 -7.7,8.6 -4.9,0 -7.7,-3 -7.7,-8.6 V 296 h 2.9 v 11.3 c 0,3.8 1.2,6.4 4.9,6.4 3.7,0 4.9,-2.6 4.9,-6.4 V 296 h 2.8 z m -11.4,-16.1 h 2.7 v 2.8 h -2.7 z m 4.7,0 h 2.7 v 2.8 h -2.7 z"
   id="path94" />
	<path
   class="st2"
   d="m 458.9,296 h 4.9 c 3.9,0 7.7,0.6 7.7,5.4 0,2.4 -1.8,4.1 -4.1,4.5 v 0.1 c 0.9,0.3 1.3,0.8 1.9,2 l 3.8,7.9 h -3.2 l -3,-6.9 c -0.9,-1.9 -1.8,-1.9 -3.3,-1.9 h -1.7 v 8.8 h -2.8 z m 2.8,8.6 h 2.4 c 2.7,0 4.3,-1.2 4.3,-3.1 0,-1.8 -1.4,-2.9 -4,-2.9 h -2.7 z"
   id="path96" />
	<polygon
   class="st2"
   points="487.7,296 502.9,296 502.9,298.5 496.8,298.5 496.8,315.9 493.9,315.9 493.9,298.5 487.7,298.5 "
   id="polygon98" />
	<polygon
   class="st2"
   points="519.8,298.5 511.6,298.5 511.6,304.4 519.1,304.4 519.1,306.8 511.6,306.8 511.6,313.4 519.8,313.4 519.8,315.9 508.7,315.9 508.7,296 519.8,296 "
   id="polygon100" />
	<path
   class="st2"
   d="m 540.9,299.3 c -1.3,-0.7 -2.6,-1.1 -4.1,-1.1 -4.6,0 -7.6,3.3 -7.6,7.8 0,4.7 3.4,7.8 7.5,7.8 1.4,0 3.3,-0.4 4.3,-1 l 0.2,2.7 c -1.5,0.6 -3.4,0.7 -4.5,0.7 -6.3,0 -10.5,-4 -10.5,-10.4 0,-6.1 4.4,-10.2 10.5,-10.2 1.5,0 3,0.2 4.5,0.9 z"
   id="path102" />
	<polygon
   class="st2"
   points="550.4,304.4 559.9,304.4 559.9,296 562.7,296 562.7,315.9 559.9,315.9 559.9,306.8 550.4,306.8 550.4,315.9 547.6,315.9 547.6,296 550.4,296 "
   id="polygon104" />
	<polygon
   class="st2"
   points="583.4,312 583.4,312 583.4,296 586.3,296 586.3,315.9 582.6,315.9 573.6,299.6 573.6,299.6 573.6,315.9 570.8,315.9 570.8,296 574.6,296 "
   id="polygon106" />
	<rect
   x="594.09998"
   y="296"
   class="st2"
   width="2.8"
   height="19.9"
   id="rect108" />
	<polygon
   class="st2"
   points="607.9,304.8 616.3,296 620.1,296 610.8,305.4 620.9,315.9 616.7,315.9 607.9,306.2 607.9,315.9 605,315.9 605,296 607.9,296 "
   id="polygon110" />
	<path
   class="st2"
   d="m 196.6,338.8 h 4.9 c 3.9,0 7.7,0.6 7.7,5.4 0,2.4 -1.8,4.1 -4.1,4.5 v 0.1 c 0.9,0.3 1.3,0.8 1.9,2 l 3.8,7.9 h -3.2 l -3,-6.9 c -0.9,-1.9 -1.8,-1.9 -3.3,-1.9 h -1.7 v 8.8 h -2.8 v -19.9 z m 2.8,8.5 h 2.4 c 2.7,0 4.3,-1.2 4.3,-3.1 0,-1.8 -1.4,-2.9 -4,-2.9 h -2.7 z"
   id="path112" />
	<path
   class="st2"
   d="m 223.3,338.8 h 3 l 8.4,19.8 h -3.1 l -2,-5 h -9.7 l -2,5 h -3 z m 1.3,2.6 -4,9.8 h 7.9 z"
   id="path114" />
	<path
   class="st2"
   d="m 240.1,338.8 h 5.2 c 4.1,0 7.5,1.4 7.5,5.9 0,4.4 -3.4,6 -7,6 H 243 v 7.9 h -2.8 z m 2.9,9.4 h 2.8 c 1.8,0 4,-0.9 4,-3.5 0,-2.5 -2.6,-3.4 -4.4,-3.4 H 243 Z"
   id="path116" />
	<path
   class="st2"
   d="m 258.8,338.8 h 5.2 c 4.1,0 7.4,1.4 7.4,5.9 0,4.4 -3.4,6 -7,6 h -2.8 v 7.9 h -2.8 z m 2.8,9.4 h 2.8 c 1.8,0 4,-0.9 4,-3.5 0,-2.5 -2.6,-3.4 -4.4,-3.4 h -2.4 z"
   id="path118" />
	<polygon
   class="st2"
   points="288.8,341.3 280.6,341.3 280.6,347.1 288.1,347.1 288.1,349.6 280.6,349.6 280.6,356.1 288.8,356.1 288.8,358.6 277.7,358.6 277.7,338.8 288.8,338.8 "
   id="polygon120" />
	<path
   class="st2"
   d="m 296.1,338.8 h 4.9 c 3.9,0 7.7,0.6 7.7,5.4 0,2.4 -1.8,4.1 -4.1,4.5 v 0.1 c 0.9,0.3 1.3,0.8 1.9,2 l 3.7,7.9 H 307 l -3.1,-6.9 c -0.9,-1.9 -1.8,-1.9 -3.3,-1.9 h -1.7 v 8.8 h -2.8 z m 2.8,8.5 h 2.4 c 2.7,0 4.3,-1.2 4.3,-3.1 0,-1.8 -1.4,-2.9 -4,-2.9 h -2.7 z"
   id="path122" />
	<path
   class="st2"
   d="m 325.4,341.7 c -1.4,-0.6 -2.2,-0.8 -3.7,-0.8 -1.6,0 -3.5,0.6 -3.5,2.6 0,3.8 8.5,2.9 8.5,9.5 0,4.3 -3.3,5.9 -7.3,5.9 -1.4,0 -2.7,-0.4 -4.1,-0.8 l 0.3,-2.6 c 1,0.4 2.7,1 4.1,1 1.6,0 3.9,-0.9 3.9,-3.2 0,-4.4 -8.5,-3.2 -8.5,-9.4 0,-3.5 2.8,-5.4 6.4,-5.4 1.3,0 2.9,0.2 4.2,0.7 z"
   id="path124" />
	<polygon
   class="st2"
   points="338.9,355.7 338.9,355.7 343.2,338.8 347.2,338.8 351.5,355.7 351.5,355.7 356.3,338.8 359.3,338.8 353.2,358.6 349.5,358.6 345.2,341.3 345.2,341.3 340.8,358.6 337,358.6 331,338.8 334.1,338.8 "
   id="polygon126" />
	<rect
   x="364.70001"
   y="338.79999"
   class="st2"
   width="2.8"
   height="19.9"
   id="rect128" />
	<polygon
   class="st2"
   points="378.3,356.1 386.6,356.1 386.6,358.6 375.4,358.6 375.4,338.8 378.3,338.8 "
   id="polygon130" />
</g>
</svg>
